<svg width="36" height="75" viewBox="0 0 36 75" fill="none" xmlns="http://www.w3.org/2000/svg">
<g clip-path="url(#clip0_1_1663)">
<path d="M3.34084 63.3737L3.55375 16.3508C3.5884 8.66648 10.2343 2.38394 18.368 2.34809C26.5025 2.31139 33.0924 8.53272 33.0578 16.2171L32.9014 50.8135L32.8958 52.0129C32.8903 53.2124 31.915 54.1877 30.7164 54.1924C29.5187 54.1979 28.5514 53.2306 28.557 52.033L28.7187 16.2371C28.7357 12.5692 26.5054 9.38534 23.2239 7.7856L23.2222 7.7856C21.7705 7.07611 20.1114 6.67787 18.3488 6.68606C18.3209 6.68619 18.295 6.68631 18.2689 6.68821C12.5635 6.75279 7.91618 11.0644 7.89189 16.3316L7.67983 63.3536C7.66305 66.9832 10.8749 69.9227 14.8392 69.9035C18.8034 69.8861 22.0426 66.9186 22.0584 63.2881L22.2279 25.8477C22.236 23.9104 20.491 22.3418 18.3363 22.3527C16.1816 22.3617 14.5098 24.0623 14.5 25.9996L10 25.9996C10.0191 21.6704 13.8098 18.0339 18.3564 18.0138C22.9031 17.9919 26.5859 21.4984 26.5669 25.8277L26.3964 63.2689C26.3695 69.2913 21.1762 74.2147 14.8199 74.2432C8.46281 74.2709 3.31306 69.3952 3.34084 63.3737Z" fill="#FF4865"/>
<path d="M13.5002 26.0004L11.9591 22.5483C11.9621 21.9084 12.0471 21.2708 12.2121 20.6511C10.8928 22.0482 10.0093 23.987 10.0002 26.0003L13.5002 26.0004Z" fill="#F73838"/>
<path d="M14.8194 74.2435C19.9467 74.2203 24.3157 71.012 25.8287 66.6116C23.7061 69.1957 20.403 70.8718 16.7036 70.8885C10.3469 70.9173 5.19739 66.0412 5.22466 60.019L5.4374 12.9969C5.44399 11.3727 5.75065 9.76085 6.3419 8.24251C4.60009 10.5341 3.56692 13.3348 3.55329 16.3519L3.34056 63.3739C3.31328 69.3963 8.4627 74.2723 14.8194 74.2435ZM28.5568 52.0336L28.7186 16.2378C28.7356 12.5699 26.5053 9.38609 23.2238 7.78635C26.5552 8.17506 30.4038 9.86348 30.5896 15.9345L30.441 48.6788C30.4355 49.8766 31.4027 50.8438 32.6004 50.8382C32.701 50.8373 32.8016 50.8293 32.9012 50.8142L32.8957 52.0137C32.8902 53.2131 31.9149 54.1884 30.7163 54.1931C29.5185 54.1986 28.5513 53.2314 28.5568 52.0336Z" fill="#F73838"/>
</g>
<defs>
<clipPath id="clip0_1_1663">
<rect width="75" height="36" fill="white" transform="translate(36) rotate(90)"/>
</clipPath>
</defs>
</svg>
