<svg width="24" height="24" viewBox="0 0 24 24" fill="none" xmlns="http://www.w3.org/2000/svg">
<path d="M4.85252 18.6474C4.56146 18.3563 4.08955 18.3563 3.79849 18.6474L0.718297 21.7276C0.427234 22.0187 0.427234 22.4906 0.718297 22.7816C1.00936 23.0727 1.48127 23.0727 1.77233 22.7816L4.85252 19.7014C5.14358 19.4103 5.14358 18.9384 4.85252 18.6474Z" fill="url(#paint0_linear_3_1065)"/>
<path d="M4.85252 18.6474C4.56146 18.3563 4.08955 18.3563 3.79849 18.6474L0.718297 21.7276C0.427234 22.0187 0.427234 22.4906 0.718297 22.7816C1.00936 23.0727 1.48126 23.0727 1.77233 22.7816L4.85257 19.7014C5.14358 19.4103 5.14358 18.9384 4.85252 18.6474Z" fill="url(#paint1_linear_3_1065)"/>
<path d="M1.05365 17.871L8.37514 10.5496L12.9504 15.1248L5.62889 22.4463C5.14075 22.9344 3.72084 22.3059 2.45729 21.0424C1.194 19.7791 0.565514 18.3592 1.05365 17.871Z" fill="url(#paint2_linear_3_1065)"/>
<path d="M3.06826 15.8563L2.19069 16.7339C2.18903 16.8483 2.18799 16.9632 2.18799 17.0783C2.18799 18.5461 2.33722 19.9579 2.6175 21.1984C2.98789 21.5499 3.36744 21.8457 3.72975 22.0746C3.31003 20.7793 3.03213 19.0623 3.03213 17.0783C3.03213 16.6586 3.04463 16.2507 3.06826 15.8563Z" fill="url(#paint3_linear_3_1065)"/>
<path d="M5.83291 13.0919L4.77739 14.1474C4.64029 15.0719 4.56836 16.0616 4.56836 17.0783C4.56836 19.1262 4.85911 21.0647 5.39023 22.5821C5.48444 22.5554 5.5648 22.5105 5.62893 22.4464L6.08374 21.9919C5.6789 20.7068 5.41246 19.0205 5.41246 17.0783C5.4125 15.5733 5.57256 14.2221 5.83291 13.0919Z" fill="url(#paint4_linear_3_1065)"/>
<path d="M8.375 10.5497L8.04412 10.8806C7.98693 11.0097 7.93289 11.1402 7.88203 11.2719C7.28034 12.8295 6.94873 14.8916 6.94873 17.0783C6.94873 18.385 7.06725 19.6475 7.29111 20.784L8.01809 20.0571C7.87527 19.1599 7.79288 18.1588 7.79288 17.0783C7.79288 14.5171 8.25581 12.4014 8.88858 11.0633L8.375 10.5497Z" fill="url(#paint5_linear_3_1065)"/>
<path d="M10.6564 12.8313L9.96895 12.1438C9.55364 13.5629 9.3291 15.2782 9.3291 17.0783C9.3291 17.6236 9.34971 18.1611 9.38989 18.6852L10.1891 17.886C10.1785 17.6169 10.1732 17.3476 10.1732 17.0783C10.1732 15.4559 10.3589 14.0121 10.6564 12.8313Z" fill="url(#paint6_linear_3_1065)"/>
<path d="M8.37496 10.5494C8.86315 10.0612 10.2831 10.6897 11.5466 11.9532C12.81 13.2167 13.4386 14.6367 12.9504 15.1248C12.4622 15.613 11.0422 14.9845 9.77877 13.721C8.5153 12.4575 7.88677 11.0376 8.37496 10.5494Z" fill="url(#paint7_linear_3_1065)"/>
<path d="M10.0874 10.8083V12.7885L12.5839 15.285C12.7343 15.2689 12.859 15.2167 12.9508 15.125C13.439 14.6368 12.8104 13.2168 11.547 11.9533C11.063 11.4693 10.5562 11.0789 10.0874 10.8083Z" fill="url(#paint8_linear_3_1065)"/>
<path d="M14.0889 17.8555C14.38 17.5644 14.8519 17.5644 15.1429 17.8555L16.2388 18.9514C16.5299 19.2425 16.5299 19.7144 16.2388 20.0055C15.9478 20.2965 15.4759 20.2965 15.1848 20.0055L14.0889 18.9095C13.7978 18.6185 13.7978 18.1466 14.0889 17.8555Z" fill="url(#paint9_linear_3_1065)"/>
<path d="M15.0879 16.1384C15.0879 15.7267 15.4216 15.3931 15.8332 15.3931H17.3831C17.7947 15.3931 18.1284 15.7267 18.1284 16.1384C18.1284 16.55 17.7947 16.8837 17.3831 16.8837H15.8333C15.4216 16.8837 15.0879 16.55 15.0879 16.1384Z" fill="url(#paint10_linear_3_1065)"/>
<path d="M12.3718 18.8545C12.7835 18.8545 13.1171 19.1882 13.1171 19.5998V21.1497C13.1171 21.5613 12.7835 21.895 12.3718 21.895C11.9602 21.895 11.6265 21.5613 11.6265 21.1497V19.5998C11.6265 19.1882 11.9601 18.8545 12.3718 18.8545Z" fill="url(#paint11_linear_3_1065)"/>
<path d="M5.64458 9.41081C5.93564 9.11975 5.93564 8.64784 5.64458 8.35678L4.54869 7.2609C4.25763 6.96984 3.78573 6.96984 3.49466 7.2609C3.2036 7.55196 3.2036 8.02387 3.49466 8.31493L4.59059 9.41086C4.88161 9.70187 5.35351 9.70187 5.64458 9.41081Z" fill="url(#paint12_linear_3_1065)"/>
<path d="M7.36155 8.41185C7.77316 8.41185 8.10688 8.07817 8.10688 7.66651V6.11667C8.10688 5.70506 7.7732 5.37138 7.36155 5.37134C6.94994 5.37134 6.61621 5.70502 6.61621 6.11663V7.66647C6.61626 8.07817 6.94994 8.41185 7.36155 8.41185Z" fill="url(#paint13_linear_3_1065)"/>
<path d="M4.64549 11.128C4.64549 10.7164 4.31181 10.3827 3.90015 10.3827H2.35032C1.93871 10.3827 1.60498 10.7164 1.60498 11.128C1.60498 11.5396 1.93866 11.8734 2.35032 11.8734H3.90015C4.31181 11.8734 4.64549 11.5397 4.64549 11.128Z" fill="url(#paint14_linear_3_1065)"/>
<path d="M23.4083 3.56739C23.5745 3.40121 23.5045 3.11641 23.2795 3.04863C23.1796 3.01854 23.0757 3.00332 22.9713 3.00344H22.6596C21.8935 3.00344 21.2724 2.3824 21.2724 1.61627C21.2724 0.850149 20.6514 0.229105 19.8852 0.229105H19.5735C19.3537 0.229105 19.1496 0.162765 18.9795 0.0493439C18.8579 -0.0317423 18.6947 -0.0100051 18.5913 0.0933596L17.759 0.925689C17.6068 1.07785 17.6487 1.33964 17.8452 1.42758C17.9826 1.48907 18.1315 1.52076 18.2821 1.52058H18.5938C19.3599 1.52058 19.981 2.14162 19.981 2.90775C19.981 3.67387 20.602 4.29492 21.3682 4.29492H21.6799C21.8756 4.29492 22.0587 4.34763 22.2165 4.43927C22.337 4.50918 22.4899 4.48586 22.5884 4.38741L23.4083 3.56739Z" fill="url(#paint15_linear_3_1065)"/>
<path d="M11.789 1.48367C11.789 1.24867 11.5381 1.09673 11.3311 1.20794C11.2392 1.25737 11.1549 1.32005 11.0812 1.39397L10.8608 1.61441C10.319 2.15613 9.44071 2.15613 8.899 1.61441C8.35728 1.07269 7.47895 1.07269 6.93723 1.61441L6.71679 1.83485C6.56746 1.98456 6.37701 2.08653 6.16962 2.12781C6.02634 2.15644 5.92627 2.28727 5.92627 2.43339V3.61049C5.92627 3.8257 6.14103 3.9812 6.34212 3.90444C6.48279 3.85072 6.61049 3.76784 6.71684 3.66123L6.93728 3.44079C7.47899 2.89907 8.35732 2.89907 8.89904 3.44079C9.44076 3.98251 10.3191 3.98251 10.8608 3.44079L11.0812 3.22035C11.2144 3.0869 11.3806 2.99118 11.5628 2.94295C11.6974 2.90724 11.7891 2.78258 11.7891 2.64337V1.48367H11.789Z" fill="url(#paint16_linear_3_1065)"/>
<path d="M10.3185 13.0391C10.4846 13.2053 10.7694 13.1353 10.8372 12.9103C10.8673 12.8104 10.8825 12.7065 10.8824 12.6021V12.2903C10.8824 11.5242 11.5034 10.9032 12.2696 10.9032C13.0357 10.9032 13.6567 10.2821 13.6567 9.51598V9.20427C13.6567 8.98441 13.7231 8.78035 13.8365 8.61024C13.9176 8.48865 13.8959 8.3254 13.7925 8.22208L12.9602 7.38975C12.808 7.23759 12.5462 7.27948 12.4583 7.47593C12.3968 7.61337 12.3651 7.76227 12.3653 7.91284V8.22456C12.3653 8.99068 11.7442 9.61173 10.9781 9.61173C10.212 9.61173 9.59093 10.2328 9.59093 10.9989V11.3106C9.59093 11.5063 9.53821 11.6894 9.44657 11.8473C9.37667 11.9677 9.39999 12.1207 9.49844 12.2191L10.3185 13.0391Z" fill="url(#paint17_linear_3_1065)"/>
<path d="M19.8733 9.34223C20.1083 9.34223 20.2602 9.09135 20.149 8.88435C20.0996 8.79238 20.0369 8.70817 19.963 8.63442L19.7425 8.41398C19.2008 7.87226 19.2008 6.99394 19.7425 6.45222C20.2843 5.9105 20.2843 5.03217 19.7425 4.49045L19.5221 4.27002C19.3724 4.12068 19.2704 3.93023 19.2291 3.72284C19.2005 3.57956 19.0697 3.47949 18.9236 3.47949H17.7465C17.5312 3.47949 17.3757 3.69425 17.4525 3.89534C17.5062 4.03601 17.5891 4.16372 17.6957 4.27006L17.9162 4.4905C18.4579 5.03222 18.4579 5.91055 17.9162 6.45226C17.3744 6.99398 17.3744 7.87231 17.9162 8.41403L18.1366 8.63447C18.27 8.76761 18.3658 8.93379 18.414 9.11602C18.4497 9.25059 18.5744 9.34228 18.7136 9.34228H19.8733V9.34223Z" fill="url(#paint18_linear_3_1065)"/>
<path d="M14.5472 3.13211C14.2212 2.49005 13.6829 1.97404 13.0245 1.6768C12.9515 1.64388 12.9515 1.53948 13.0245 1.50656C13.6829 1.20931 14.2212 0.693303 14.5472 0.0512426C14.582 -0.0170809 14.6793 -0.0170809 14.714 0.0512426C15.04 0.693303 15.5784 1.20931 16.2368 1.50656C16.3098 1.53948 16.3098 1.64388 16.2368 1.6768C15.5784 1.97404 15.04 2.49005 14.714 3.13211C14.6793 3.20044 14.5819 3.20044 14.5472 3.13211Z" fill="url(#paint19_linear_3_1065)"/>
<path d="M21.7557 8.87467C21.4297 8.23261 20.8914 7.7166 20.2329 7.41935C20.16 7.38643 20.16 7.28203 20.2329 7.24911C20.8914 6.95187 21.4297 6.43586 21.7557 5.7938C21.7905 5.72547 21.8878 5.72547 21.9225 5.7938C22.2485 6.43586 22.7869 6.95187 23.4453 7.24911C23.5182 7.28203 23.5182 7.38643 23.4453 7.41935C22.7869 7.7166 22.2485 8.23261 21.9225 8.87467C21.8878 8.94304 21.7905 8.94304 21.7557 8.87467Z" fill="url(#paint20_linear_3_1065)"/>
<path d="M16.9823 12.1968C16.6563 11.5548 16.1179 11.0387 15.4595 10.7415C15.3865 10.7086 15.3865 10.6042 15.4595 10.5713C16.1179 10.274 16.6563 9.758 16.9823 9.11594C17.017 9.04762 17.1144 9.04762 17.1491 9.11594C17.4751 9.758 18.0134 10.274 18.6718 10.5713C18.7448 10.6042 18.7448 10.7086 18.6718 10.7415C18.0134 11.0387 17.4751 11.5548 17.1491 12.1968C17.1144 12.2651 17.017 12.2651 16.9823 12.1968Z" fill="url(#paint21_linear_3_1065)"/>
<path d="M10.5115 8.62865C10.9931 8.62865 11.3834 8.23829 11.3834 7.75677C11.3834 7.27524 10.9931 6.88489 10.5115 6.88489C10.03 6.88489 9.63965 7.27524 9.63965 7.75677C9.63965 8.23829 10.03 8.62865 10.5115 8.62865Z" fill="url(#paint22_linear_3_1065)"/>
<path d="M21.5457 12.1163C22.0272 12.1163 22.4176 11.726 22.4176 11.2444C22.4176 10.7629 22.0272 10.3726 21.5457 10.3726C21.0642 10.3726 20.6738 10.7629 20.6738 11.2444C20.6738 11.726 21.0642 12.1163 21.5457 12.1163Z" fill="url(#paint23_linear_3_1065)"/>
<path d="M14.3603 6.88496C15.1075 6.88496 15.7132 6.27923 15.7132 5.53202C15.7132 4.78481 15.1075 4.17908 14.3603 4.17908C13.6131 4.17908 13.0073 4.78481 13.0073 5.53202C13.0073 6.27923 13.6131 6.88496 14.3603 6.88496Z" fill="url(#paint24_linear_3_1065)"/>
<path d="M14.7812 14.5516C15.5284 14.5516 16.1341 13.9459 16.1341 13.1986C16.1341 12.4514 15.5284 11.8457 14.7812 11.8457C14.034 11.8457 13.4282 12.4514 13.4282 13.1986C13.4282 13.9459 14.034 14.5516 14.7812 14.5516Z" fill="url(#paint25_linear_3_1065)"/>
<defs>
<linearGradient id="paint0_linear_3_1065" x1="2.23415" y1="20.1773" x2="3.69793" y2="21.6411" gradientUnits="userSpaceOnUse">
<stop stop-color="#FD4755"/>
<stop offset="1" stop-color="#A72B2B"/>
</linearGradient>
<linearGradient id="paint1_linear_3_1065" x1="2.24423" y1="21.2557" x2="3.20315" y2="20.2967" gradientUnits="userSpaceOnUse">
<stop stop-color="#A72B2B" stop-opacity="0"/>
<stop offset="1" stop-color="#42210B"/>
</linearGradient>
<linearGradient id="paint2_linear_3_1065" x1="5.22838" y1="15.6081" x2="9.16083" y2="19.5406" gradientUnits="userSpaceOnUse">
<stop stop-color="#BBEC6C"/>
<stop offset="1" stop-color="#81B823"/>
</linearGradient>
<linearGradient id="paint3_linear_3_1065" x1="1.29085" y1="16.9753" x2="5.9051" y2="21.5895" gradientUnits="userSpaceOnUse">
<stop stop-color="#78A91F" stop-opacity="0"/>
<stop offset="1" stop-color="#78A91F"/>
</linearGradient>
<linearGradient id="paint4_linear_3_1065" x1="3.02046" y1="15.2459" x2="7.63471" y2="19.8601" gradientUnits="userSpaceOnUse">
<stop stop-color="#78A91F" stop-opacity="0"/>
<stop offset="1" stop-color="#78A91F"/>
</linearGradient>
<linearGradient id="paint5_linear_3_1065" x1="5.2162" y1="13.0501" x2="9.83045" y2="17.6643" gradientUnits="userSpaceOnUse">
<stop stop-color="#78A91F" stop-opacity="0"/>
<stop offset="1" stop-color="#78A91F"/>
</linearGradient>
<linearGradient id="paint6_linear_3_1065" x1="6.2655" y1="12.0007" x2="10.8798" y2="16.6149" gradientUnits="userSpaceOnUse">
<stop stop-color="#78A91F" stop-opacity="0"/>
<stop offset="1" stop-color="#78A91F"/>
</linearGradient>
<linearGradient id="paint7_linear_3_1065" x1="11.4421" y1="12.0577" x2="9.58918" y2="13.9106" gradientUnits="userSpaceOnUse">
<stop stop-color="#BBEC6C"/>
<stop offset="1" stop-color="#81B823"/>
</linearGradient>
<linearGradient id="paint8_linear_3_1065" x1="12.9448" y1="14.5716" x2="10.3561" y2="11.8928" gradientUnits="userSpaceOnUse">
<stop stop-color="#78A91F" stop-opacity="0"/>
<stop offset="1" stop-color="#78A91F"/>
</linearGradient>
<linearGradient id="paint9_linear_3_1065" x1="15.6855" y1="18.4228" x2="14.2218" y2="19.8866" gradientUnits="userSpaceOnUse">
<stop stop-color="#E6E6E6"/>
<stop offset="1" stop-color="#999999"/>
</linearGradient>
<linearGradient id="paint10_linear_3_1065" x1="16.6029" y1="15.4738" x2="16.6029" y2="17.5439" gradientUnits="userSpaceOnUse">
<stop stop-color="#E6E6E6"/>
<stop offset="1" stop-color="#999999"/>
</linearGradient>
<linearGradient id="paint11_linear_3_1065" x1="13.0329" y1="20.3743" x2="10.9628" y2="20.3743" gradientUnits="userSpaceOnUse">
<stop stop-color="#E6E6E6"/>
<stop offset="1" stop-color="#999999"/>
</linearGradient>
<linearGradient id="paint12_linear_3_1065" x1="5.06642" y1="7.75324" x2="3.60268" y2="9.21698" gradientUnits="userSpaceOnUse">
<stop stop-color="#E6E6E6"/>
<stop offset="1" stop-color="#999999"/>
</linearGradient>
<linearGradient id="paint13_linear_3_1065" x1="8.02638" y1="6.89723" x2="5.95629" y2="6.89723" gradientUnits="userSpaceOnUse">
<stop stop-color="#E6E6E6"/>
<stop offset="1" stop-color="#999999"/>
</linearGradient>
<linearGradient id="paint14_linear_3_1065" x1="3.12587" y1="10.4672" x2="3.12587" y2="12.5373" gradientUnits="userSpaceOnUse">
<stop stop-color="#E6E6E6"/>
<stop offset="1" stop-color="#999999"/>
</linearGradient>
<linearGradient id="paint15_linear_3_1065" x1="18.509" y1="0.171601" x2="22.6546" y2="4.31719" gradientUnits="userSpaceOnUse">
<stop stop-color="#FD4755"/>
<stop offset="1" stop-color="#A72B2B"/>
</linearGradient>
<linearGradient id="paint16_linear_3_1065" x1="8.33117" y1="1.64945" x2="10.1652" y2="4.77628" gradientUnits="userSpaceOnUse">
<stop stop-color="#FD4755"/>
<stop offset="1" stop-color="#A72B2B"/>
</linearGradient>
<linearGradient id="paint17_linear_3_1065" x1="10.8611" y1="8.82395" x2="12.7101" y2="12.1161" gradientUnits="userSpaceOnUse">
<stop stop-color="#FEF0AE"/>
<stop offset="1" stop-color="#FBC56D"/>
</linearGradient>
<linearGradient id="paint18_linear_3_1065" x1="17.2733" y1="5.97906" x2="20.9087" y2="6.99951" gradientUnits="userSpaceOnUse">
<stop stop-color="#B3DAFE"/>
<stop offset="1" stop-color="#0182FC"/>
</linearGradient>
<linearGradient id="paint19_linear_3_1065" x1="13.9917" y1="0.854438" x2="15.5551" y2="2.65836" gradientUnits="userSpaceOnUse">
<stop stop-color="#B3DAFE"/>
<stop offset="1" stop-color="#0182FC"/>
</linearGradient>
<linearGradient id="paint20_linear_3_1065" x1="21.0922" y1="6.285" x2="22.355" y2="8.05884" gradientUnits="userSpaceOnUse">
<stop stop-color="#BBEC6C"/>
<stop offset="1" stop-color="#81B823"/>
</linearGradient>
<linearGradient id="paint21_linear_3_1065" x1="16.2458" y1="9.50505" x2="17.6589" y2="11.4894" gradientUnits="userSpaceOnUse">
<stop stop-color="#FBC56D"/>
<stop offset="1" stop-color="#C5715A"/>
</linearGradient>
<linearGradient id="paint22_linear_3_1065" x1="10.1789" y1="7.16459" x2="10.9674" y2="8.56849" gradientUnits="userSpaceOnUse">
<stop stop-color="#FD4755"/>
<stop offset="1" stop-color="#A72B2B"/>
</linearGradient>
<linearGradient id="paint23_linear_3_1065" x1="21.2131" y1="10.6523" x2="22.0016" y2="12.0562" gradientUnits="userSpaceOnUse">
<stop stop-color="#FEF0AE"/>
<stop offset="1" stop-color="#FBC56D"/>
</linearGradient>
<linearGradient id="paint24_linear_3_1065" x1="13.8442" y1="4.61306" x2="15.0677" y2="6.79156" gradientUnits="userSpaceOnUse">
<stop stop-color="#BBEC6C"/>
<stop offset="1" stop-color="#81B823"/>
</linearGradient>
<linearGradient id="paint25_linear_3_1065" x1="14.2651" y1="12.2797" x2="15.4886" y2="14.4582" gradientUnits="userSpaceOnUse">
<stop stop-color="#B3DAFE"/>
<stop offset="1" stop-color="#0182FC"/>
</linearGradient>
</defs>
</svg>
