<svg width="24" height="24" viewBox="0 0 24 24" fill="none" xmlns="http://www.w3.org/2000/svg">
<g clip-path="url(#clip0_3_1003)">
<path d="M17.1669 4.52142C17.5629 5.16062 18.113 5.62448 18.6923 5.86594C18.8136 5.91652 19.0591 5.76443 19.0678 5.63332C19.1095 5.00716 18.9393 4.30801 18.5433 3.66881C18.1473 3.02961 17.5971 2.56575 17.0179 2.32429C16.8966 2.2737 16.6511 2.42579 16.6424 2.5569C16.6006 3.18302 16.7709 3.88217 17.1669 4.52142Z" fill="url(#paint0_linear_3_1003)"/>
<path d="M16.7881 2.37248L18.9224 5.8178C19 5.76971 19.0636 5.69893 19.0679 5.63333C19.1097 5.00717 18.9394 4.30801 18.5434 3.66881C18.1474 3.02961 17.5973 2.56575 17.0181 2.3243C16.9574 2.29898 16.8657 2.32439 16.7881 2.37248Z" fill="url(#paint1_linear_3_1003)"/>
<path d="M19.6221 4.90323C19.3748 5.63678 19.3617 6.37547 19.54 6.98991C19.5773 7.11862 19.8509 7.21081 19.9586 7.131C20.4724 6.74982 20.9091 6.15391 21.1563 5.42036C21.4036 4.68681 21.4168 3.94813 21.2385 3.33368C21.2011 3.20497 20.9275 3.11278 20.8199 3.1926C20.306 3.57373 19.8693 4.16968 19.6221 4.90323Z" fill="url(#paint2_linear_3_1003)"/>
<path d="M19.6221 4.90323C19.3748 5.63678 19.3617 6.37547 19.54 6.98991C19.5773 7.11862 19.8509 7.21081 19.9586 7.131C20.4724 6.74982 20.9091 6.15391 21.1563 5.42036C21.4036 4.68681 21.4168 3.94813 21.2385 3.33368C21.2011 3.20497 20.9275 3.11278 20.8199 3.1926C20.306 3.57373 19.8693 4.16968 19.6221 4.90323Z" fill="url(#paint3_linear_3_1003)"/>
<path d="M21.0558 3.18494L19.7231 7.13868C19.8097 7.16785 19.905 7.17096 19.9588 7.13105C20.4727 6.74988 20.9094 6.15397 21.1566 5.42042C21.4039 4.68687 21.417 3.94818 21.2387 3.33374C21.22 3.26931 21.1423 3.21411 21.0558 3.18494Z" fill="url(#paint4_linear_3_1003)"/>
<path d="M17.6963 6.0014C18.4536 6.1621 19.096 6.5269 19.5341 6.99325C19.6258 7.0909 19.5658 7.3734 19.4424 7.42535C18.8527 7.67354 18.1174 7.74591 17.3602 7.58521C16.603 7.4245 15.9605 7.0597 15.5225 6.59335C15.4307 6.4957 15.4907 6.21321 15.6142 6.16125C16.2039 5.91302 16.9391 5.84069 17.6963 6.0014Z" fill="url(#paint5_linear_3_1003)"/>
<path d="M15.4876 6.36023L19.5689 7.22654C19.55 7.31585 19.5041 7.39948 19.4423 7.42545C18.8526 7.67364 18.1174 7.74602 17.3602 7.58531C16.603 7.42461 15.9605 7.05981 15.5224 6.59345C15.4766 6.54461 15.4686 6.44955 15.4876 6.36023Z" fill="url(#paint6_linear_3_1003)"/>
<path d="M20.8671 7.92498C20.3989 8.68023 20.191 9.50244 20.2296 10.2359C20.2377 10.3895 20.5195 10.5641 20.6606 10.5031C21.3347 10.2115 21.9787 9.65957 22.4468 8.90432C22.915 8.14907 23.1229 7.32686 23.0844 6.5934C23.0763 6.4398 22.7945 6.26517 22.6533 6.3262C21.9792 6.61783 21.3353 7.16973 20.8671 7.92498Z" fill="url(#paint7_linear_3_1003)"/>
<path d="M20.8671 7.92498C20.3989 8.68023 20.191 9.50244 20.2296 10.2359C20.2377 10.3895 20.5195 10.5641 20.6606 10.5031C21.3347 10.2115 21.9787 9.65957 22.4468 8.90432C22.915 8.14907 23.1229 7.32686 23.0844 6.5934C23.0763 6.4398 22.7945 6.26517 22.6533 6.3262C21.9792 6.61783 21.3353 7.16973 20.8671 7.92498Z" fill="url(#paint8_linear_3_1003)"/>
<path d="M22.919 6.37927L20.3955 10.45C20.4846 10.5052 20.5903 10.5336 20.6609 10.503C21.335 10.2114 21.9789 9.65951 22.4471 8.90426C22.9153 8.14901 23.1232 7.3268 23.0846 6.59334C23.0805 6.51654 23.0081 6.43447 22.919 6.37927Z" fill="url(#paint9_linear_3_1003)"/>
<path d="M18.4277 8.64883C19.232 9.02653 19.8547 9.60225 20.2223 10.2381C20.2993 10.3713 20.1584 10.6713 20.0068 10.6971C19.2828 10.8203 18.442 10.7089 17.6377 10.3312C16.8334 9.95354 16.2107 9.37782 15.843 8.74196C15.766 8.60879 15.9069 8.30874 16.0585 8.28295C16.7826 8.15975 17.6233 8.27114 18.4277 8.64883Z" fill="url(#paint10_linear_3_1003)"/>
<path d="M15.865 8.47217L20.2003 10.5078C20.1558 10.6027 20.0826 10.6842 20.0068 10.6971C19.2828 10.8203 18.442 10.7089 17.6377 10.3312C16.8334 9.95349 16.2107 9.37777 15.843 8.74191C15.8045 8.67537 15.8205 8.56704 15.865 8.47217Z" fill="url(#paint11_linear_3_1003)"/>
<path d="M21.0254 11.3956C20.2407 12.1011 19.7305 12.9694 19.5308 13.8185C19.489 13.9963 19.7522 14.289 19.9334 14.2663C20.7989 14.1578 21.7164 13.7425 22.5011 13.037C23.2859 12.3315 23.7961 11.4631 23.9957 10.6141C24.0376 10.4363 23.7744 10.1436 23.5932 10.1663C22.7277 10.2748 21.8101 10.6901 21.0254 11.3956Z" fill="url(#paint12_linear_3_1003)"/>
<path d="M21.0254 11.3956C20.2407 12.1011 19.7305 12.9694 19.5308 13.8185C19.489 13.9963 19.7522 14.289 19.9334 14.2663C20.7989 14.1578 21.7164 13.7425 22.5011 13.037C23.2859 12.3315 23.7961 11.4631 23.9957 10.6141C24.0376 10.4363 23.7744 10.1436 23.5932 10.1663C22.7277 10.2748 21.8101 10.6901 21.0254 11.3956Z" fill="url(#paint13_linear_3_1003)"/>
<path d="M23.8781 10.3149L19.6484 14.1175C19.7317 14.2101 19.8427 14.2776 19.9334 14.2662C20.7988 14.1577 21.7163 13.7424 22.5011 13.0369C23.2858 12.3314 23.7961 11.4631 23.9957 10.614C24.0166 10.5252 23.9613 10.4076 23.8781 10.3149Z" fill="url(#paint14_linear_3_1003)"/>
<path d="M18.0031 11.4102C18.7947 12.1081 19.3133 12.9714 19.5212 13.8185C19.5648 13.9959 19.3044 14.2912 19.123 14.2702C18.2565 14.1701 17.335 13.7637 16.5435 13.0659C15.7519 12.3681 15.2332 11.5047 15.0253 10.6576C14.9818 10.4802 15.2421 10.1849 15.4236 10.2059C16.29 10.306 17.2115 10.7123 18.0031 11.4102Z" fill="url(#paint15_linear_3_1003)"/>
<path d="M15.1401 10.3574L19.4065 14.1188C19.3242 14.2122 19.2137 14.2807 19.123 14.2703C18.2565 14.1702 17.335 13.7638 16.5434 13.0659C15.7519 12.3681 15.2332 11.5048 15.0253 10.6577C15.0036 10.569 15.0578 10.4508 15.1401 10.3574Z" fill="url(#paint16_linear_3_1003)"/>
<path d="M16.4388 13.9444C17.0115 14.8308 17.2767 15.8024 17.2472 16.6741C17.2411 16.8566 16.9104 17.0703 16.7414 17.0009C15.9346 16.6697 15.1577 16.0287 14.585 15.1424C14.0123 14.2561 13.7471 13.2844 13.7766 12.4127C13.7828 12.2302 14.1134 12.0165 14.2824 12.0859C15.0893 12.4172 15.8661 13.0581 16.4388 13.9444Z" fill="url(#paint17_linear_3_1003)"/>
<path d="M13.9684 12.1548L17.0554 16.9319C16.9508 16.9995 16.8259 17.0355 16.7414 17.0009C15.9346 16.6696 15.1577 16.0286 14.585 15.1423C14.0123 14.256 13.7471 13.2844 13.7766 12.4127C13.7796 12.3214 13.8639 12.2223 13.9684 12.1548Z" fill="url(#paint18_linear_3_1003)"/>
<path d="M19.9438 15.013C18.8036 15.3323 17.8585 15.952 17.2355 16.7068C17.105 16.8648 17.2241 17.2901 17.4177 17.3574C18.3422 17.6786 19.4716 17.7171 20.6118 17.3978C21.752 17.0784 22.697 16.4587 23.3201 15.704C23.4506 15.5459 23.3314 15.1206 23.1378 15.0533C22.2134 14.7321 21.084 14.6935 19.9438 15.013Z" fill="url(#paint19_linear_3_1003)"/>
<path d="M19.9438 15.013C18.8036 15.3323 17.8585 15.952 17.2355 16.7068C17.105 16.8648 17.2241 17.2901 17.4177 17.3574C18.3422 17.6786 19.4716 17.7171 20.6118 17.3978C21.752 17.0784 22.697 16.4587 23.3201 15.704C23.4506 15.5459 23.3314 15.1206 23.1378 15.0533C22.2134 14.7321 21.084 14.6935 19.9438 15.013Z" fill="url(#paint20_linear_3_1003)"/>
<path d="M23.3505 15.3446L17.2051 17.0661C17.2428 17.2006 17.3209 17.3238 17.4177 17.3574C18.3422 17.6786 19.4716 17.7172 20.6118 17.3978C21.752 17.0784 22.697 16.4587 23.3201 15.704C23.3854 15.6249 23.3882 15.4791 23.3505 15.3446Z" fill="url(#paint21_linear_3_1003)"/>
<path d="M11.8958 19.2267C11.5955 19.2267 11.3521 18.9833 11.3521 18.683C11.3521 18.3827 11.5955 18.1393 11.8958 18.1393C16.2007 18.1393 19.7029 14.637 19.7029 10.3321C19.7029 8.82897 19.275 7.36972 18.4653 6.11207C18.3028 5.8596 18.3757 5.52313 18.6282 5.36064C18.8808 5.19814 19.2171 5.27099 19.3797 5.52351C20.3025 6.95702 20.7903 8.61984 20.7903 10.3322C20.7903 15.2366 16.8002 19.2267 11.8958 19.2267Z" fill="url(#paint22_linear_3_1003)"/>
<path d="M18.1961 14.9369C16.7744 16.8769 14.4799 18.1392 11.8958 18.1392C11.5955 18.1392 11.3521 18.3827 11.3521 18.683C11.3521 18.9832 11.5955 19.2267 11.8958 19.2267C14.3552 19.2267 16.5845 18.2232 18.1961 16.6043V14.9369Z" fill="url(#paint23_linear_3_1003)"/>
<path d="M6.83287 4.52142C6.43687 5.16062 5.88671 5.62448 5.30746 5.86594C5.18614 5.91652 4.94069 5.76443 4.93193 5.63332C4.89019 5.00716 5.06045 4.30801 5.45645 3.66881C5.85245 3.02961 6.40261 2.56575 6.98181 2.32429C7.10313 2.2737 7.34859 2.42579 7.35734 2.5569C7.39913 3.18302 7.22887 3.88217 6.83287 4.52142Z" fill="url(#paint24_linear_3_1003)"/>
<path d="M7.21179 2.37248L5.07749 5.8178C4.99984 5.76971 4.93631 5.69893 4.93193 5.63333C4.89019 5.00717 5.06045 4.30801 5.45645 3.66881C5.85245 3.02961 6.40261 2.56575 6.98181 2.3243C7.04247 2.29898 7.13414 2.32439 7.21179 2.37248Z" fill="url(#paint25_linear_3_1003)"/>
<path d="M4.37802 4.90323C4.62527 5.63678 4.63845 6.37547 4.46014 6.98991C4.42277 7.11862 4.14917 7.21081 4.04155 7.131C3.52767 6.74982 3.09101 6.15391 2.84376 5.42036C2.59652 4.68681 2.58334 3.94813 2.76164 3.33368C2.79901 3.20497 3.07261 3.11278 3.18023 3.1926C3.69412 3.57373 4.13077 4.16968 4.37802 4.90323Z" fill="url(#paint26_linear_3_1003)"/>
<path d="M4.37802 4.90323C4.62527 5.63678 4.63845 6.37547 4.46014 6.98991C4.42277 7.11862 4.14917 7.21081 4.04155 7.131C3.52767 6.74982 3.09101 6.15391 2.84376 5.42036C2.59652 4.68681 2.58334 3.94813 2.76164 3.33368C2.79901 3.20497 3.07261 3.11278 3.18023 3.1926C3.69412 3.57373 4.13077 4.16968 4.37802 4.90323Z" fill="url(#paint27_linear_3_1003)"/>
<path d="M2.94461 3.18494L4.27722 7.13868C4.19068 7.16785 4.09539 7.17096 4.04155 7.13105C3.52767 6.74988 3.09101 6.15397 2.84376 5.42042C2.59652 4.68687 2.58334 3.94818 2.76164 3.33374C2.78033 3.26931 2.85807 3.21411 2.94461 3.18494Z" fill="url(#paint28_linear_3_1003)"/>
<path d="M6.30355 6.0014C5.54633 6.1621 4.90388 6.5269 4.46581 6.99325C4.3741 7.0909 4.43405 7.3734 4.55753 7.42535C5.14722 7.67354 5.88247 7.74591 6.6397 7.58521C7.39692 7.4245 8.03937 7.0597 8.47744 6.59335C8.56915 6.4957 8.5092 6.21321 8.38572 6.16125C7.79602 5.91302 7.06078 5.84069 6.30355 6.0014Z" fill="url(#paint29_linear_3_1003)"/>
<path d="M8.51247 6.36023L4.43115 7.22654C4.45012 7.31585 4.49595 7.39948 4.55774 7.42545C5.14743 7.67364 5.88268 7.74602 6.6399 7.58531C7.39713 7.42461 8.03958 7.05981 8.47765 6.59345C8.52348 6.54461 8.53143 6.44955 8.51247 6.36023Z" fill="url(#paint30_linear_3_1003)"/>
<path d="M3.13288 7.92498C3.60107 8.68023 3.80897 9.50244 3.77039 10.2359C3.76229 10.3895 3.48055 10.5641 3.33937 10.5031C2.6653 10.2115 2.02135 9.65957 1.55316 8.90432C1.08497 8.14907 0.877069 7.32686 0.915657 6.5934C0.923751 6.4398 1.20549 6.26517 1.34667 6.3262C2.02079 6.61783 2.66469 7.16973 3.13288 7.92498Z" fill="url(#paint31_linear_3_1003)"/>
<path d="M3.13288 7.92498C3.60107 8.68023 3.80897 9.50244 3.77039 10.2359C3.76229 10.3895 3.48055 10.5641 3.33937 10.5031C2.6653 10.2115 2.02135 9.65957 1.55316 8.90432C1.08497 8.14907 0.877069 7.32686 0.915657 6.5934C0.923751 6.4398 1.20549 6.26517 1.34667 6.3262C2.02079 6.61783 2.66469 7.16973 3.13288 7.92498Z" fill="url(#paint32_linear_3_1003)"/>
<path d="M1.0813 6.37927L3.60479 10.45C3.5157 10.5052 3.40996 10.5336 3.33937 10.503C2.6653 10.2114 2.02135 9.65951 1.55316 8.90426C1.08497 8.14901 0.877069 7.3268 0.915657 6.59334C0.919751 6.51654 0.992222 6.43447 1.0813 6.37927Z" fill="url(#paint33_linear_3_1003)"/>
<path d="M5.57226 8.64883C4.76793 9.02653 4.14525 9.60225 3.77758 10.2381C3.70059 10.3713 3.84148 10.6713 3.99311 10.6971C4.71716 10.8203 5.55791 10.7089 6.36224 10.3312C7.16657 9.95354 7.7893 9.37782 8.15692 8.74196C8.23391 8.60879 8.09301 8.30874 7.94139 8.28295C7.21734 8.15975 6.37659 8.27114 5.57226 8.64883Z" fill="url(#paint34_linear_3_1003)"/>
<path d="M8.1351 8.47217L3.7998 10.5078C3.84437 10.6027 3.9175 10.6842 3.99331 10.6971C4.71736 10.8203 5.55811 10.7089 6.36244 10.3312C7.16677 9.95349 7.78945 9.37777 8.15712 8.74191C8.19562 8.67537 8.17962 8.56704 8.1351 8.47217Z" fill="url(#paint35_linear_3_1003)"/>
<path d="M2.97474 11.3956C3.7595 12.1011 4.26971 12.9694 4.46938 13.8184C4.51121 13.9962 4.24801 14.289 4.06679 14.2662C3.20133 14.1577 2.28383 13.7424 1.49907 13.0369C0.714319 12.3314 0.204108 11.4631 0.00443699 10.6141C-0.0373983 10.4363 0.225802 10.1436 0.407025 10.1663C1.27248 10.2748 2.19004 10.6901 2.97474 11.3956Z" fill="url(#paint36_linear_3_1003)"/>
<path d="M2.97474 11.3956C3.7595 12.1011 4.26971 12.9694 4.46938 13.8184C4.51121 13.9962 4.24801 14.289 4.06679 14.2662C3.20133 14.1577 2.28383 13.7424 1.49907 13.0369C0.714319 12.3314 0.204108 11.4631 0.00443699 10.6141C-0.0373983 10.4363 0.225802 10.1436 0.407025 10.1663C1.27248 10.2748 2.19004 10.6901 2.97474 11.3956Z" fill="url(#paint37_linear_3_1003)"/>
<path d="M0.122075 10.3149L4.35172 14.1175C4.26848 14.2101 4.15742 14.2776 4.06678 14.2662C3.20132 14.1577 2.28382 13.7424 1.49906 13.0369C0.714358 12.3315 0.204099 11.4631 0.0044283 10.6141C-0.0164658 10.5252 0.0388754 10.4076 0.122075 10.3149Z" fill="url(#paint38_linear_3_1003)"/>
<path d="M5.99658 11.4102C5.20505 12.1081 4.68637 12.9714 4.47846 13.8185C4.43493 13.9959 4.69526 14.2912 4.87672 14.2702C5.74317 14.1701 6.66467 13.7637 7.45625 13.0659C8.24783 12.3681 8.76646 11.5047 8.97437 10.6576C9.0179 10.4802 8.75757 10.1849 8.57611 10.2059C7.70966 10.306 6.78816 10.7123 5.99658 11.4102Z" fill="url(#paint39_linear_3_1003)"/>
<path d="M8.85961 10.3574L4.59326 14.1188C4.67557 14.2122 4.78601 14.2807 4.87674 14.2703C5.74319 14.1702 6.6647 13.7638 7.45627 13.0659C8.2478 12.3681 8.76649 11.5048 8.97439 10.6577C8.99613 10.569 8.94197 10.4508 8.85961 10.3574Z" fill="url(#paint40_linear_3_1003)"/>
<path d="M7.56108 13.9444C6.98837 14.8308 6.7232 15.8024 6.7527 16.6741C6.75887 16.8566 7.0895 17.0703 7.25849 17.0009C8.06536 16.6697 8.84221 16.0287 9.41491 15.1424C9.98762 14.2561 10.2528 13.2844 10.2233 12.4127C10.2171 12.2302 9.88649 12.0165 9.7175 12.0859C8.91063 12.4172 8.13379 13.0581 7.56108 13.9444Z" fill="url(#paint41_linear_3_1003)"/>
<path d="M10.0317 12.1548L6.94482 16.9319C7.04939 16.9995 7.17428 17.0355 7.25875 17.0009C8.06562 16.6696 8.84247 16.0286 9.41518 15.1423C9.98788 14.256 10.2531 13.2844 10.2236 12.4127C10.2205 12.3214 10.1363 12.2223 10.0317 12.1548Z" fill="url(#paint42_linear_3_1003)"/>
<path d="M4.05615 15.013C5.19634 15.3323 6.14137 15.952 6.76443 16.7068C6.89492 16.8648 6.77577 17.2901 6.58217 17.3574C5.6577 17.6786 4.52829 17.7171 3.3881 17.3978C2.24791 17.0784 1.30288 16.4587 0.679818 15.704C0.549323 15.5459 0.668476 15.1206 0.862076 15.0533C1.78655 14.7321 2.91596 14.6935 4.05615 15.013Z" fill="url(#paint43_linear_3_1003)"/>
<path d="M4.05615 15.013C5.19634 15.3323 6.14137 15.952 6.76443 16.7068C6.89492 16.8648 6.77577 17.2901 6.58217 17.3574C5.6577 17.6786 4.52829 17.7171 3.3881 17.3978C2.24791 17.0784 1.30288 16.4587 0.679818 15.704C0.549323 15.5459 0.668476 15.1206 0.862076 15.0533C1.78655 14.7321 2.91596 14.6935 4.05615 15.013Z" fill="url(#paint44_linear_3_1003)"/>
<path d="M0.649429 15.3446L6.79484 17.0661C6.75715 17.2006 6.67898 17.3238 6.58218 17.3574C5.65771 17.6786 4.5283 17.7172 3.38811 17.3978C2.24792 17.0784 1.30289 16.4587 0.679829 15.704C0.614558 15.6249 0.611734 15.4791 0.649429 15.3446Z" fill="url(#paint45_linear_3_1003)"/>
<path d="M12.1045 19.2267C12.4048 19.2267 12.6482 18.9833 12.6482 18.683C12.6482 18.3827 12.4048 18.1393 12.1045 18.1393C7.79961 18.1393 4.29735 14.637 4.29735 10.3321C4.29735 8.82897 4.7253 7.36972 5.53495 6.11207C5.69744 5.8596 5.6246 5.52313 5.37208 5.36064C5.11951 5.19814 4.78314 5.27099 4.6206 5.52351C3.69773 6.95702 3.20996 8.61984 3.20996 10.3322C3.20996 15.2366 7.20008 19.2267 12.1045 19.2267Z" fill="url(#paint46_linear_3_1003)"/>
<path d="M15.2841 17.5303C15.3503 17.6973 15.3344 17.8964 15.2097 18.0565L14.3289 19.1871C14.2469 19.2922 14.2072 19.4242 14.2175 19.5571L14.3278 20.9861C14.3578 21.3737 13.9775 21.6628 13.612 21.5304L12.2645 21.042C12.18 21.0116 12.0892 21.0029 12.0004 21.0169C11.9117 21.0029 11.8209 21.0116 11.7363 21.042L10.3889 21.5304C10.0234 21.6628 9.64312 21.3737 9.67305 20.9861L9.7834 19.5571C9.78887 19.484 9.77925 19.4106 9.75512 19.3413L15.2841 17.5303Z" fill="url(#paint47_linear_3_1003)"/>
<path d="M6.3916 21.6464L10.9675 18.6895C11.0323 18.7896 11.0668 18.9092 11.0336 18.9902C10.7163 19.763 10.1023 20.5072 9.2533 21.0558C8.40432 21.6043 7.47362 21.8583 6.63862 21.8301C6.55122 21.8272 6.45633 21.7465 6.3916 21.6464Z" fill="url(#paint48_linear_3_1003)"/>
<path d="M17.6983 13.2986L14.973 12.6401C14.7195 12.5788 14.4979 12.4251 14.3518 12.2091L12.7808 9.88679C12.5908 9.60591 12.2996 9.45521 12 9.43091C11.7005 9.45521 11.4094 9.60591 11.2193 9.88679L9.6483 12.2091C9.50213 12.4251 9.28061 12.5788 9.02708 12.6401L6.30176 13.2986C5.56252 13.4772 5.2544 14.3596 5.72178 14.9595L7.44495 17.1713C7.60523 17.377 7.68293 17.6352 7.66285 17.8952L7.44698 20.6906C7.38843 21.4489 8.13236 22.0145 8.84738 21.7553L11.4833 20.8C11.6486 20.7405 11.8263 20.7235 12 20.7508C12.1736 20.7235 12.3513 20.7405 12.5166 20.8L15.1525 21.7553C15.8675 22.0145 16.6115 21.4488 16.5529 20.6906L16.337 17.8952C16.317 17.6352 16.3947 17.377 16.555 17.1713L18.2781 14.9595C18.7456 14.3596 18.4376 13.4772 17.6983 13.2986Z" fill="url(#paint49_linear_3_1003)"/>
<path d="M12.5167 20.8L15.1527 21.7553C15.8677 22.0145 16.6116 21.4488 16.5531 20.6906L16.3372 17.8952C16.3171 17.6352 16.3948 17.377 16.5551 17.1713L18.2783 14.9595C18.7456 14.3596 18.4375 13.4773 17.6983 13.2986L14.973 12.6401C14.7194 12.5788 14.4979 12.4251 14.3517 12.2091L12.7808 9.88679C12.5907 9.60591 12.2996 9.45521 12 9.43091V20.7508C12.1736 20.7235 12.3514 20.7405 12.5167 20.8Z" fill="url(#paint50_linear_3_1003)"/>
<path d="M17.6983 13.2986L14.973 12.6401C14.8807 12.6177 14.7919 12.5829 14.7091 12.5365L7.76172 21.5226C8.03421 21.786 8.44535 21.901 8.84737 21.7554L11.4833 20.8001C11.6486 20.7405 11.8263 20.7236 11.9999 20.7509C12.1736 20.7236 12.3512 20.7405 12.5166 20.8001L15.1525 21.7554C15.8675 22.0146 16.6115 21.4489 16.5529 20.6906L16.337 17.8953C16.317 17.6352 16.3947 17.3771 16.5549 17.1713L18.2781 14.9596C18.7456 14.3595 18.4376 13.4772 17.6983 13.2986Z" fill="url(#paint51_linear_3_1003)"/>
<path d="M6.30169 13.2986L9.02701 12.6401C9.11929 12.6177 9.20809 12.5829 9.29095 12.5365L16.2383 21.5226C15.9658 21.786 15.5547 21.901 15.1526 21.7554L12.5167 20.8001C12.3514 20.7405 12.1737 20.7236 12.0001 20.7509C11.8265 20.7236 11.6488 20.7405 11.4834 20.8001L8.8475 21.7554C8.13247 22.0146 7.38854 21.4489 7.44709 20.6906L7.66297 17.8953C7.68305 17.6352 7.60534 17.3771 7.44507 17.1713L5.72181 14.9595C5.25442 14.3596 5.56245 13.4772 6.30169 13.2986Z" fill="url(#paint52_linear_3_1003)"/>
<path d="M5.57625 13.9301C5.44663 14.2569 5.47775 14.6463 5.72171 14.9595L7.44487 17.1712C7.60515 17.3769 7.68286 17.6351 7.66278 17.8951L7.4469 20.6905C7.38835 21.4488 8.13228 22.0144 8.8473 21.7553L11.4832 20.8C11.6486 20.7404 11.8263 20.7235 11.9999 20.7507C12.1735 20.7235 12.3512 20.7404 12.5165 20.8L15.1524 21.7553C15.8675 22.0144 16.6114 21.4487 16.5529 20.6905L16.337 17.8951C16.3263 17.7521 16.3451 17.6084 16.3923 17.473L5.57625 13.9301Z" fill="url(#paint53_linear_3_1003)"/>
<path d="M17.4129 16.0699H6.58691L7.44491 17.1712C7.60518 17.3769 7.68289 17.6351 7.66281 17.8951L7.44693 20.6905C7.38838 21.4488 8.13231 22.0144 8.84734 21.7553L11.4833 20.8C11.6486 20.7404 11.8263 20.7234 11.9999 20.7507C12.1735 20.7234 12.3512 20.7404 12.5165 20.8L15.1525 21.7553C15.8675 22.0144 16.6114 21.4487 16.5529 20.6905L16.337 17.8951C16.3169 17.6351 16.3946 17.3769 16.5549 17.1712L17.4129 16.0699Z" fill="url(#paint54_linear_3_1003)"/>
</g>
<defs>
<linearGradient id="paint0_linear_3_1003" x1="16.8885" y1="4.17112" x2="19.3032" y2="4.65976" gradientUnits="userSpaceOnUse">
<stop stop-color="#BBEC6C"/>
<stop offset="1" stop-color="#81B823"/>
</linearGradient>
<linearGradient id="paint1_linear_3_1003" x1="18.1951" y1="3.69352" x2="17.605" y2="5.18625" gradientUnits="userSpaceOnUse">
<stop stop-color="#78A91F" stop-opacity="0"/>
<stop offset="1" stop-color="#78A91F"/>
</linearGradient>
<linearGradient id="paint2_linear_3_1003" x1="19.2587" y1="4.41852" x2="20.1192" y2="7.18836" gradientUnits="userSpaceOnUse">
<stop stop-color="#BBEC6C"/>
<stop offset="1" stop-color="#81B823"/>
</linearGradient>
<linearGradient id="paint3_linear_3_1003" x1="20.1557" y1="5.46638" x2="19.4888" y2="6.33631" gradientUnits="userSpaceOnUse">
<stop stop-color="#78A91F" stop-opacity="0"/>
<stop offset="1" stop-color="#78A91F"/>
</linearGradient>
<linearGradient id="paint4_linear_3_1003" x1="21.0217" y1="5.31001" x2="19.2736" y2="6.27759" gradientUnits="userSpaceOnUse">
<stop stop-color="#78A91F" stop-opacity="0"/>
<stop offset="1" stop-color="#78A91F"/>
</linearGradient>
<linearGradient id="paint5_linear_3_1003" x1="17.3632" y1="5.44652" x2="19.3085" y2="7.59705" gradientUnits="userSpaceOnUse">
<stop stop-color="#BBEC6C"/>
<stop offset="1" stop-color="#81B823"/>
</linearGradient>
<linearGradient id="paint6_linear_3_1003" x1="17.233" y1="7.41719" x2="18.9545" y2="6.40739" gradientUnits="userSpaceOnUse">
<stop stop-color="#78A91F" stop-opacity="0"/>
<stop offset="1" stop-color="#78A91F"/>
</linearGradient>
<linearGradient id="paint7_linear_3_1003" x1="20.782" y1="7.12975" x2="21.017" y2="10.4499" gradientUnits="userSpaceOnUse">
<stop stop-color="#BBEC6C"/>
<stop offset="1" stop-color="#81B823"/>
</linearGradient>
<linearGradient id="paint8_linear_3_1003" x1="21.6235" y1="8.44479" x2="20.4636" y2="9.4887" gradientUnits="userSpaceOnUse">
<stop stop-color="#78A91F" stop-opacity="0"/>
<stop offset="1" stop-color="#78A91F"/>
</linearGradient>
<linearGradient id="paint9_linear_3_1003" x1="22.5189" y1="8.58787" x2="20.3154" y2="9.21262" gradientUnits="userSpaceOnUse">
<stop stop-color="#78A91F" stop-opacity="0"/>
<stop offset="1" stop-color="#78A91F"/>
</linearGradient>
<linearGradient id="paint10_linear_3_1003" x1="18.1031" y1="7.91618" x2="19.7156" y2="10.8304" gradientUnits="userSpaceOnUse">
<stop stop-color="#BBEC6C"/>
<stop offset="1" stop-color="#81B823"/>
</linearGradient>
<linearGradient id="paint11_linear_3_1003" x1="17.4431" y1="10.085" x2="19.6315" y2="9.40512" gradientUnits="userSpaceOnUse">
<stop stop-color="#78A91F" stop-opacity="0"/>
<stop offset="1" stop-color="#78A91F"/>
</linearGradient>
<linearGradient id="paint12_linear_3_1003" x1="21.037" y1="10.4732" x2="20.2028" y2="14.3403" gradientUnits="userSpaceOnUse">
<stop stop-color="#BBEC6C"/>
<stop offset="1" stop-color="#81B823"/>
</linearGradient>
<linearGradient id="paint13_linear_3_1003" x1="21.5533" y1="12.2533" x2="20.0745" y2="12.5143" gradientUnits="userSpaceOnUse">
<stop stop-color="#78A91F" stop-opacity="0"/>
<stop offset="1" stop-color="#78A91F"/>
</linearGradient>
<linearGradient id="paint14_linear_3_1003" x1="22.5332" y1="12.7135" x2="19.8111" y2="12.693" gradientUnits="userSpaceOnUse">
<stop stop-color="#78A91F" stop-opacity="0"/>
<stop offset="1" stop-color="#78A91F"/>
</linearGradient>
<linearGradient id="paint15_linear_3_1003" x1="17.7773" y1="10.4864" x2="18.6479" y2="14.3449" gradientUnits="userSpaceOnUse">
<stop stop-color="#BBEC6C"/>
<stop offset="1" stop-color="#81B823"/>
</linearGradient>
<linearGradient id="paint16_linear_3_1003" x1="16.3053" y1="12.74" x2="19.0277" y2="12.6897" gradientUnits="userSpaceOnUse">
<stop stop-color="#78A91F" stop-opacity="0"/>
<stop offset="1" stop-color="#78A91F"/>
</linearGradient>
<linearGradient id="paint17_linear_3_1003" x1="16.5661" y1="12.9975" x2="16.3598" y2="16.9474" gradientUnits="userSpaceOnUse">
<stop stop-color="#BBEC6C"/>
<stop offset="1" stop-color="#81B823"/>
</linearGradient>
<linearGradient id="paint18_linear_3_1003" x1="14.5367" y1="14.7682" x2="17.1695" y2="15.4595" gradientUnits="userSpaceOnUse">
<stop stop-color="#78A91F" stop-opacity="0"/>
<stop offset="1" stop-color="#78A91F"/>
</linearGradient>
<linearGradient id="paint19_linear_3_1003" x1="20.4337" y1="14.1405" x2="17.6733" y2="17.6121" gradientUnits="userSpaceOnUse">
<stop stop-color="#BBEC6C"/>
<stop offset="1" stop-color="#81B823"/>
</linearGradient>
<linearGradient id="paint20_linear_3_1003" x1="19.9715" y1="16.2054" x2="18.2316" y2="16.2054" gradientUnits="userSpaceOnUse">
<stop stop-color="#78A91F" stop-opacity="0"/>
<stop offset="1" stop-color="#78A91F"/>
</linearGradient>
<linearGradient id="paint21_linear_3_1003" x1="20.8247" y1="17.1364" x2="18.0971" y2="15.7613" gradientUnits="userSpaceOnUse">
<stop stop-color="#78A91F" stop-opacity="0"/>
<stop offset="1" stop-color="#78A91F"/>
</linearGradient>
<linearGradient id="paint22_linear_3_1003" x1="13.565" y1="10.4062" x2="18.9798" y2="15.821" gradientUnits="userSpaceOnUse">
<stop stop-color="#BBEC6C"/>
<stop offset="1" stop-color="#81B823"/>
</linearGradient>
<linearGradient id="paint23_linear_3_1003" x1="16.5334" y1="16.8383" x2="15.2785" y2="17.1834" gradientUnits="userSpaceOnUse">
<stop stop-color="#78A91F" stop-opacity="0"/>
<stop offset="1" stop-color="#78A91F"/>
</linearGradient>
<linearGradient id="paint24_linear_3_1003" x1="7.11244" y1="4.17234" x2="4.69776" y2="4.66099" gradientUnits="userSpaceOnUse">
<stop stop-color="#BBEC6C"/>
<stop offset="1" stop-color="#81B823"/>
</linearGradient>
<linearGradient id="paint25_linear_3_1003" x1="5.80601" y1="3.69472" x2="6.39599" y2="5.18748" gradientUnits="userSpaceOnUse">
<stop stop-color="#78A91F" stop-opacity="0"/>
<stop offset="1" stop-color="#78A91F"/>
</linearGradient>
<linearGradient id="paint26_linear_3_1003" x1="4.74685" y1="4.42467" x2="3.88634" y2="7.19451" gradientUnits="userSpaceOnUse">
<stop stop-color="#BBEC6C"/>
<stop offset="1" stop-color="#81B823"/>
</linearGradient>
<linearGradient id="paint27_linear_3_1003" x1="3.84437" y1="5.46638" x2="4.51134" y2="6.33631" gradientUnits="userSpaceOnUse">
<stop stop-color="#78A91F" stop-opacity="0"/>
<stop offset="1" stop-color="#78A91F"/>
</linearGradient>
<linearGradient id="paint28_linear_3_1003" x1="2.98412" y1="5.31616" x2="4.73216" y2="6.28375" gradientUnits="userSpaceOnUse">
<stop stop-color="#78A91F" stop-opacity="0"/>
<stop offset="1" stop-color="#78A91F"/>
</linearGradient>
<linearGradient id="paint29_linear_3_1003" x1="6.63394" y1="5.43948" x2="4.68867" y2="7.59002" gradientUnits="userSpaceOnUse">
<stop stop-color="#BBEC6C"/>
<stop offset="1" stop-color="#81B823"/>
</linearGradient>
<linearGradient id="paint30_linear_3_1003" x1="6.76435" y1="7.41015" x2="5.0428" y2="6.40035" gradientUnits="userSpaceOnUse">
<stop stop-color="#78A91F" stop-opacity="0"/>
<stop offset="1" stop-color="#78A91F"/>
</linearGradient>
<linearGradient id="paint31_linear_3_1003" x1="3.21406" y1="7.12672" x2="2.97901" y2="10.4469" gradientUnits="userSpaceOnUse">
<stop stop-color="#BBEC6C"/>
<stop offset="1" stop-color="#81B823"/>
</linearGradient>
<linearGradient id="paint32_linear_3_1003" x1="2.37655" y1="8.44479" x2="3.53646" y2="9.4887" gradientUnits="userSpaceOnUse">
<stop stop-color="#78A91F" stop-opacity="0"/>
<stop offset="1" stop-color="#78A91F"/>
</linearGradient>
<linearGradient id="paint33_linear_3_1003" x1="1.47741" y1="8.58485" x2="3.68095" y2="9.20956" gradientUnits="userSpaceOnUse">
<stop stop-color="#78A91F" stop-opacity="0"/>
<stop offset="1" stop-color="#78A91F"/>
</linearGradient>
<linearGradient id="paint34_linear_3_1003" x1="5.89871" y1="7.90812" x2="4.28618" y2="10.8223" gradientUnits="userSpaceOnUse">
<stop stop-color="#BBEC6C"/>
<stop offset="1" stop-color="#81B823"/>
</linearGradient>
<linearGradient id="paint35_linear_3_1003" x1="6.55889" y1="10.0769" x2="4.37049" y2="9.39706" gradientUnits="userSpaceOnUse">
<stop stop-color="#78A91F" stop-opacity="0"/>
<stop offset="1" stop-color="#78A91F"/>
</linearGradient>
<linearGradient id="paint36_linear_3_1003" x1="2.96633" y1="10.4764" x2="3.8005" y2="14.3436" gradientUnits="userSpaceOnUse">
<stop stop-color="#BBEC6C"/>
<stop offset="1" stop-color="#81B823"/>
</linearGradient>
<linearGradient id="paint37_linear_3_1003" x1="2.44684" y1="12.2533" x2="3.92571" y2="12.5143" gradientUnits="userSpaceOnUse">
<stop stop-color="#78A91F" stop-opacity="0"/>
<stop offset="1" stop-color="#78A91F"/>
</linearGradient>
<linearGradient id="paint38_linear_3_1003" x1="1.47004" y1="12.7169" x2="4.19229" y2="12.6963" gradientUnits="userSpaceOnUse">
<stop stop-color="#78A91F" stop-opacity="0"/>
<stop offset="1" stop-color="#78A91F"/>
</linearGradient>
<linearGradient id="paint39_linear_3_1003" x1="6.22827" y1="10.4812" x2="5.35768" y2="14.3397" gradientUnits="userSpaceOnUse">
<stop stop-color="#BBEC6C"/>
<stop offset="1" stop-color="#81B823"/>
</linearGradient>
<linearGradient id="paint40_linear_3_1003" x1="7.70036" y1="12.7348" x2="4.97793" y2="12.6845" gradientUnits="userSpaceOnUse">
<stop stop-color="#78A91F" stop-opacity="0"/>
<stop offset="1" stop-color="#78A91F"/>
</linearGradient>
<linearGradient id="paint41_linear_3_1003" x1="7.4355" y1="12.9976" x2="7.6418" y2="16.9474" gradientUnits="userSpaceOnUse">
<stop stop-color="#BBEC6C"/>
<stop offset="1" stop-color="#81B823"/>
</linearGradient>
<linearGradient id="paint42_linear_3_1003" x1="9.46507" y1="14.7682" x2="6.83228" y2="15.4596" gradientUnits="userSpaceOnUse">
<stop stop-color="#78A91F" stop-opacity="0"/>
<stop offset="1" stop-color="#78A91F"/>
</linearGradient>
<linearGradient id="paint43_linear_3_1003" x1="3.56786" y1="14.1383" x2="6.32829" y2="17.6099" gradientUnits="userSpaceOnUse">
<stop stop-color="#BBEC6C"/>
<stop offset="1" stop-color="#81B823"/>
</linearGradient>
<linearGradient id="paint44_linear_3_1003" x1="4.02843" y1="16.2054" x2="5.76829" y2="16.2054" gradientUnits="userSpaceOnUse">
<stop stop-color="#78A91F" stop-opacity="0"/>
<stop offset="1" stop-color="#78A91F"/>
</linearGradient>
<linearGradient id="paint45_linear_3_1003" x1="3.17683" y1="17.1343" x2="5.90445" y2="15.7592" gradientUnits="userSpaceOnUse">
<stop stop-color="#78A91F" stop-opacity="0"/>
<stop offset="1" stop-color="#78A91F"/>
</linearGradient>
<linearGradient id="paint46_linear_3_1003" x1="10.4353" y1="10.4062" x2="5.02045" y2="15.821" gradientUnits="userSpaceOnUse">
<stop stop-color="#BBEC6C"/>
<stop offset="1" stop-color="#81B823"/>
</linearGradient>
<linearGradient id="paint47_linear_3_1003" x1="12.4914" y1="19.2749" x2="12.3832" y2="17.2352" gradientUnits="userSpaceOnUse">
<stop stop-color="#F6A96C" stop-opacity="0"/>
<stop offset="0.996" stop-color="#F6A96C" stop-opacity="0.996"/>
<stop offset="1" stop-color="#F6A96C"/>
</linearGradient>
<linearGradient id="paint48_linear_3_1003" x1="8.89121" y1="21.1012" x2="9.55347" y2="18.5793" gradientUnits="userSpaceOnUse">
<stop stop-color="#DC8758" stop-opacity="0"/>
<stop offset="0.996" stop-color="#DC8758" stop-opacity="0.996"/>
<stop offset="1" stop-color="#DC8758"/>
</linearGradient>
<linearGradient id="paint49_linear_3_1003" x1="9.10533" y1="13.6768" x2="14.3254" y2="18.8968" gradientUnits="userSpaceOnUse">
<stop stop-color="#FEF0AE"/>
<stop offset="1" stop-color="#FBC56D"/>
</linearGradient>
<linearGradient id="paint50_linear_3_1003" x1="15.1279" y1="15.1" x2="7.91312" y2="18.0826" gradientUnits="userSpaceOnUse">
<stop stop-color="#F6A96C" stop-opacity="0"/>
<stop offset="0.996" stop-color="#F6A96C" stop-opacity="0.996"/>
<stop offset="1" stop-color="#F6A96C"/>
</linearGradient>
<linearGradient id="paint51_linear_3_1003" x1="13.244" y1="17.6604" x2="9.29405" y2="15.9675" gradientUnits="userSpaceOnUse">
<stop stop-color="#F6A96C" stop-opacity="0"/>
<stop offset="0.996" stop-color="#F6A96C" stop-opacity="0.996"/>
<stop offset="1" stop-color="#F6A96C"/>
</linearGradient>
<linearGradient id="paint52_linear_3_1003" x1="10.756" y1="17.6604" x2="14.706" y2="15.9675" gradientUnits="userSpaceOnUse">
<stop stop-color="#F6A96C" stop-opacity="0"/>
<stop offset="0.996" stop-color="#F6A96C" stop-opacity="0.996"/>
<stop offset="1" stop-color="#F6A96C"/>
</linearGradient>
<linearGradient id="paint53_linear_3_1003" x1="10.8437" y1="17.8585" x2="13.383" y2="13.7775" gradientUnits="userSpaceOnUse">
<stop stop-color="#F6A96C" stop-opacity="0"/>
<stop offset="0.996" stop-color="#F6A96C" stop-opacity="0.996"/>
<stop offset="1" stop-color="#F6A96C"/>
</linearGradient>
<linearGradient id="paint54_linear_3_1003" x1="11.9999" y1="18.3239" x2="11.9999" y2="22.7578" gradientUnits="userSpaceOnUse">
<stop stop-color="#DC8758" stop-opacity="0"/>
<stop offset="0.996" stop-color="#DC8758" stop-opacity="0.996"/>
<stop offset="1" stop-color="#DC8758"/>
</linearGradient>
<clipPath id="clip0_3_1003">
<rect width="24" height="24" fill="white"/>
</clipPath>
</defs>
</svg>
