<svg width="40" height="40" viewBox="0 0 40 40" fill="none" xmlns="http://www.w3.org/2000/svg">
<g clip-path="url(#clip0_3_968)">
<path d="M28.5986 36C28.2665 36 27.9331 35.9173 27.6276 35.7496L20 31.5613L12.3725 35.7496C11.6695 36.1357 10.8174 36.0713 10.1746 35.5837C9.532 35.096 9.21005 34.2696 9.34445 33.4518L10.8011 24.5807L4.6303 18.2984C4.06153 17.7194 3.85673 16.8531 4.10216 16.0641C4.34772 15.275 5.0008 14.6998 5.78689 14.5805L14.3147 13.2864L18.1286 5.21527C18.4802 4.47111 19.2057 4 20 4C20.7945 4 21.5199 4.47111 21.8715 5.21513L25.6852 13.2862L34.2132 14.5804C34.9993 14.6997 35.6525 15.2749 35.8978 16.0639C36.1433 16.853 35.9385 17.7192 35.3696 18.2983L29.1988 24.5807L30.6556 33.4518C30.7899 34.2694 30.4679 35.096 29.8253 35.5837C29.4619 35.8596 29.0313 36 28.5986 36Z" fill="#FFC800"/>
<path d="M35.8978 16.0639C35.6524 15.2749 34.9993 14.6997 34.2132 14.5804L25.6853 13.2862L21.8714 5.21513C21.5199 4.47111 20.7944 4 20 4V31.5613L27.6275 35.7496C27.9329 35.9173 28.2664 36 28.5985 36C29.0312 36 29.4618 35.8596 29.8254 35.5837C30.468 35.096 30.7899 34.2696 30.6557 33.4518L29.1989 24.5807L35.3697 18.2983C35.9386 17.7192 36.1432 16.853 35.8978 16.0639Z" fill="#FF9600"/>
</g>
<defs>
<clipPath id="clip0_3_968">
<rect width="32" height="32" fill="white" transform="translate(4 4)"/>
</clipPath>
</defs>
</svg>
