<svg width="40" height="40" viewBox="0 0 40 40" fill="none" xmlns="http://www.w3.org/2000/svg">
<circle cx="20" cy="20" r="14" fill="#2DBECD"/>
<circle cx="20" cy="20" r="17" stroke="#2DBECD" stroke-width="2"/>
<path d="M17.3235 24.5635C17.7825 24.5635 18.1735 24.5097 18.4965 24.402C18.8252 24.2943 19.0915 24.147 19.2955 23.96C19.5052 23.773 19.6582 23.552 19.7545 23.297C19.8508 23.0363 19.899 22.753 19.899 22.447C19.899 21.8407 19.6893 21.3647 19.27 21.019C18.8507 20.6677 18.2018 20.492 17.3235 20.492H14.7735V24.5635H17.3235ZM14.7735 15.2135V19.2085H16.856C17.7457 19.2085 18.4058 19.03 18.8365 18.673C19.2728 18.3103 19.491 17.823 19.491 17.211C19.491 16.514 19.2842 16.0068 18.8705 15.6895C18.4568 15.3722 17.8137 15.2135 16.941 15.2135H14.7735ZM16.941 13.794C17.706 13.794 18.3605 13.8677 18.9045 14.015C19.4542 14.1623 19.9047 14.3748 20.256 14.6525C20.6073 14.9302 20.8652 15.2673 21.0295 15.664C21.1995 16.055 21.2845 16.4998 21.2845 16.9985C21.2845 17.2932 21.2392 17.5765 21.1485 17.8485C21.0578 18.1205 20.919 18.3755 20.732 18.6135C20.545 18.8458 20.3098 19.0555 20.0265 19.2425C19.7432 19.4295 19.4088 19.5853 19.0235 19.71C20.7972 20.0613 21.684 20.9878 21.684 22.4895C21.684 23.0108 21.5877 23.4868 21.395 23.9175C21.2023 24.3425 20.9218 24.7108 20.5535 25.0225C20.1852 25.3342 19.7318 25.575 19.1935 25.745C18.6552 25.915 18.0432 26 17.3575 26H12.963V13.794H16.941ZM25.0444 19.0215C25.3221 18.4548 25.6564 18.01 26.0474 17.687C26.4384 17.364 26.9088 17.2025 27.4584 17.2025C27.6454 17.2025 27.8211 17.2252 27.9854 17.2705C28.1554 17.3102 28.3028 17.3725 28.4274 17.4575L28.3169 18.707C28.2773 18.86 28.1838 18.9365 28.0364 18.9365C27.9571 18.9365 27.8381 18.9223 27.6794 18.894C27.5208 18.86 27.3508 18.843 27.1694 18.843C26.9031 18.843 26.6679 18.8827 26.4639 18.962C26.2599 19.0357 26.0758 19.149 25.9114 19.302C25.7528 19.4493 25.6111 19.6335 25.4864 19.8545C25.3618 20.0698 25.2456 20.3163 25.1379 20.594V26H23.4804V17.364H24.4324C24.6138 17.364 24.7356 17.398 24.7979 17.466C24.8659 17.5283 24.9141 17.6417 24.9424 17.806L25.0444 19.0215Z" fill="white"/>
</svg>
