<svg width="40" height="40" viewBox="0 0 40 40" fill="none" xmlns="http://www.w3.org/2000/svg">
<circle cx="20" cy="20" r="20" fill="#FFD641"/>
<circle cx="20" cy="20" r="16" fill="#FB9600"/>
<path d="M27.271 12.4013V26H24.4897V18.1787C24.4897 17.9982 24.4928 17.8022 24.499 17.5907C24.5114 17.3791 24.5301 17.1644 24.555 16.9467L20.943 23.9373C20.831 24.1551 20.6785 24.32 20.4857 24.432C20.299 24.544 20.0843 24.6 19.8417 24.6H19.4123C19.1697 24.6 18.9519 24.544 18.759 24.432C18.5723 24.32 18.423 24.1551 18.311 23.9373L14.699 16.928C14.7177 17.152 14.7332 17.3729 14.7457 17.5907C14.7581 17.8022 14.7643 17.9982 14.7643 18.1787V26H11.983V12.4013H14.391C14.5279 12.4013 14.6461 12.4044 14.7457 12.4107C14.8514 12.4169 14.9448 12.4356 15.0257 12.4667C15.1065 12.4978 15.1781 12.5476 15.2403 12.616C15.3088 12.6782 15.3741 12.7684 15.4363 12.8867L18.9363 19.784C19.0608 20.0204 19.179 20.2662 19.291 20.5213C19.4092 20.7764 19.5212 21.0378 19.627 21.3053C19.7328 21.0316 19.8417 20.764 19.9537 20.5027C20.0719 20.2413 20.1963 19.9924 20.327 19.756L23.8177 12.8867C23.8799 12.7684 23.9421 12.6782 24.0043 12.616C24.0728 12.5476 24.1474 12.4978 24.2283 12.4667C24.3092 12.4356 24.3994 12.4169 24.499 12.4107C24.6048 12.4044 24.7261 12.4013 24.863 12.4013H27.271Z" fill="#FFD641"/>
<path d="M20 40C31.0457 40 40 31.0457 40 20C40 8.95431 31.0457 0 20 0V40Z" fill="#FF0000" fill-opacity="0.1"/>
</svg>
