<svg width="30" height="30" viewBox="0 0 30 30" fill="none" xmlns="http://www.w3.org/2000/svg">
<g clip-path="url(#clip0_1_1643)">
<path fill-rule="evenodd" clip-rule="evenodd" d="M25.1706 3.97186C26.9094 9.54704 23.7993 15.4763 18.2242 17.2151L13.6072 18.6551C8.03199 20.3939 2.10272 17.2839 0.363909 11.7087C1.50471 6.65628 5.23422 2.3334 10.5342 0.680418C15.8342 -0.972562 21.3599 0.463758 25.1706 3.97186Z" fill="#4AFFDE"/>
<path fill-rule="evenodd" clip-rule="evenodd" d="M29.3197 10.5343C31.7862 18.4426 27.3744 26.8536 19.4661 29.3201C17.3333 29.9853 15.164 30.15 13.0852 29.8807L3.84645 25.0347C2.44304 23.4771 1.34535 21.5988 0.680315 19.4665C-0.133178 16.8582 -0.198203 14.1957 0.363645 11.709C2.68647 13.8471 5.64583 15.216 8.80366 15.5839C10.0706 15.7321 11.3513 15.7166 12.6143 15.5376C13.4104 15.4256 14.208 15.2474 15 15.0004C15.6002 14.8132 16.1805 14.5917 16.7386 14.3385L16.7392 14.3383C21.1118 12.3589 24.1587 8.45272 25.1703 3.97213C27.0462 5.69855 28.5062 7.92598 29.3197 10.5343Z" fill="#4AFFDE"/>
<path d="M12.1376 12.6959L13.0786 13.1895C13.6126 12.1713 14.837 11.7455 15.8782 12.182L16.4962 11.9704L16.3728 11.239C14.8114 10.5314 12.9438 11.1588 12.1376 12.6959Z" fill="#AA4E2E"/>
<path fill-rule="evenodd" clip-rule="evenodd" d="M17.3139 11.7325L16.6701 12.0615L16.8193 12.6755C17.7703 13.2841 18.116 14.5333 17.5819 15.5515L18.5229 16.0451C19.3292 14.508 18.7837 12.6149 17.3139 11.7325Z" fill="#8E361E"/>
<path d="M18.8208 7.71678L17.2487 11.3205L14.9936 15.0125L14.5232 14.7658L15.8784 12.1821L16.373 11.2391L18.3497 7.46967L18.8208 7.71678Z" fill="#C96239"/>
<path fill-rule="evenodd" clip-rule="evenodd" d="M19.2914 7.96353L17.3139 11.7326L16.8193 12.6756L15.4641 15.2593L14.9937 15.0126L18.821 7.71681L19.2914 7.96353Z" fill="#AA4E2E"/>
<path d="M17.974 9.33082L19.5932 7.86322L20.5797 4.363L19.0926 5.82123L18.0447 4.02068L17.8428 6.09473L15.8829 5.38852L17.061 7.10694L15.1059 7.82645L17.1128 8.385L16.0776 10.1926L17.974 9.33082Z" fill="#F9DC00"/>
<path d="M20.7107 7.59906L22.3023 6.25394L20.2252 6.41533L20.5796 4.36296L17.9738 9.33078L18.3428 11.3808L19.2415 9.50161L20.8419 10.8351L20.3224 8.81766L22.4059 8.80999L20.7107 7.59906Z" fill="#FCB72B"/>
<path d="M18.4877 8.35164L19.078 7.70818L19.6408 6.15319L18.9822 6.79849L18.5186 6.00125L18.4299 6.91926L17.5617 6.60663L18.0833 7.36752L17.2179 7.68559L18.1067 7.93304L17.6482 8.73315L18.4877 8.35164Z" fill="#FCB72B"/>
<path d="M19.6989 7.58503L20.4031 6.98979L19.4836 7.0616L19.6408 6.1533L18.4876 8.35176L18.651 9.25926L19.0486 8.42722L19.7568 9.0174L19.5272 8.12501L20.449 8.1212L19.6989 7.58503Z" fill="#F17F29"/>
<path fill-rule="evenodd" clip-rule="evenodd" d="M13.9982 12.9006L10.6869 21.4398L6.43634 27.3154C5.48821 26.6573 4.61928 25.892 3.84682 25.0345L8.80403 15.5836L11.0284 11.3429L13.9982 12.9006Z" fill="#D60738"/>
<path fill-rule="evenodd" clip-rule="evenodd" d="M15.6478 13.7658L12.5597 21.8535L8.03279 28.2837C7.48103 27.9943 6.94784 27.6709 6.43631 27.3153L13.998 12.8999L15.6478 13.7658Z" fill="#FE3345"/>
<path fill-rule="evenodd" clip-rule="evenodd" d="M17.2984 14.631L14.9335 22.8041L9.73725 29.0462C9.15346 28.8274 8.5841 28.5723 8.033 28.2832L15.648 13.7653L17.2984 14.631Z" fill="#D60738"/>
<path fill-rule="evenodd" clip-rule="evenodd" d="M20.2672 16.1886L13.0856 29.8803C11.9411 29.732 10.8175 29.4522 9.73709 29.0465L17.2982 14.6313L20.2672 16.1886Z" fill="#AF0838"/>
<path fill-rule="evenodd" clip-rule="evenodd" d="M17.2978 14.6309L17.2979 14.6314L16.7388 14.3381L16.7393 14.338L17.2978 14.6309Z" fill="#D60738"/>
</g>
<defs>
<clipPath id="clip0_1_1643">
<rect width="30" height="30" fill="white"/>
</clipPath>
</defs>
</svg>
