<svg width="40" height="40" viewBox="0 0 40 40" fill="none" xmlns="http://www.w3.org/2000/svg">
<path d="M40 20C40 31.0457 31.0457 40 20 40C8.95431 40 0 31.0457 0 20C0 8.95431 8.95431 0 20 0C31.0457 0 40 8.95431 40 20Z" fill="#FFC832"/>
<path d="M33.5088 20.5579C32.7093 19.1041 30.8106 18.5036 28.6786 18.8512C29.1117 18.5036 29.5114 18.0611 29.8778 17.6186C31.9432 14.9637 32.0098 11.8032 30.0111 10.4125C28.2789 9.21154 25.6472 9.81204 23.6152 11.7716C24.0149 9.05351 22.949 6.68309 20.8836 6.11419C19.6844 5.79813 18.3519 6.1458 17.2193 7.06236C16.1867 7.91571 15.3872 9.17993 14.9541 10.6022C14.7876 11.1395 14.6876 11.7084 14.621 12.2457C13.6216 10.4442 11.956 9.36957 10.2571 9.65402C7.92531 10.0333 6.55953 12.783 7.12583 15.8803C7.39232 17.3026 7.99193 18.5668 8.89135 19.4517C9.42434 19.989 9.99065 20.3683 10.6236 20.5895C8.09187 21.5061 6.45959 22.96 6.09316 24.6351C5.79335 25.8677 6.22641 27.0687 7.25907 27.9536C8.55824 29.0282 10.1572 28.9966 11.5896 28.965C12.6556 28.9334 13.655 28.9334 14.4544 29.3127L14.5211 29.3443C15.3205 29.6919 15.9202 30.4821 16.5531 31.2722C17.3859 32.3468 18.3186 33.5478 19.9509 33.8955C19.9842 33.8955 20.0175 33.8955 20.0508 33.9271C21.4166 34.1799 22.6825 33.7691 23.5153 32.7893C24.6812 31.4935 24.8811 29.3759 24.1149 26.9107C24.5146 27.1635 24.9477 27.3215 25.4474 27.4163C26.8131 27.7008 28.5454 27.4796 30.1776 26.6578C33.1757 25.2672 34.6081 22.5491 33.5088 20.5579Z" fill="white"/>
<path d="M19.6515 19.4516C17.0532 18.3138 15.2544 20.305 11.8566 21.3164C6.8598 22.7702 6.16025 25.7095 7.95909 27.2266C9.75793 28.7437 12.6894 27.353 14.9546 28.4592C14.9546 28.4592 14.9546 28.4592 14.9879 28.4592C14.9879 28.4592 14.9879 28.4592 15.0212 28.4592C17.3197 29.4706 17.9193 32.5363 20.2845 32.9788C22.6496 33.4213 24.6816 31.0825 22.8495 26.4365C21.617 23.2759 22.1832 20.7159 19.6515 19.4516Z" fill="#FFA800"/>
<path d="M14.3883 14.7425C14.8546 17.2709 13.822 19.5149 12.1231 19.7994C10.4241 20.0838 8.65862 18.2507 8.19225 15.7539C7.72589 13.2254 8.75856 10.9814 10.4575 10.697C12.1897 10.4125 13.9552 12.2456 14.3883 14.7425Z" fill="#FFA800"/>
<path d="M29.6953 25.8196C32.0727 24.6338 33.3477 22.4952 32.543 21.0429C31.7383 19.5906 29.1587 19.3746 26.7813 20.5604C24.4038 21.7462 23.1289 23.8848 23.9336 25.3371C24.7382 26.7894 27.3179 27.0054 29.6953 25.8196Z" fill="#FFA800"/>
<path d="M22.3493 12.6878C21.5499 15.2794 19.4845 16.9861 17.719 16.512C15.9535 16.038 15.1873 13.5411 15.9535 10.9495C16.753 8.35781 18.8183 6.65111 20.5838 7.12519C22.3493 7.59927 23.1488 10.0961 22.3493 12.6878Z" fill="#FFA800"/>
<path d="M29.0269 17.0361C30.7056 14.8706 30.8649 12.2766 29.3828 11.2424C27.9007 10.2082 25.3384 11.1253 23.6597 13.2908C21.981 15.4564 21.8216 18.0503 23.3037 19.0845C24.7858 20.1188 27.3482 19.2017 29.0269 17.0361Z" fill="#FFA800"/>
</svg>
