<svg width="20" height="21" viewBox="0 0 20 21" fill="none" xmlns="http://www.w3.org/2000/svg">
<path d="M14.3965 13.7097L18.5829 17.613C19.2548 18.2395 19.2845 19.3277 18.6479 19.9932C18.5373 20.1089 18.4145 20.2034 18.284 20.2771C17.663 20.6277 16.8821 20.0977 16.3869 19.5174L12.8193 15.3584L14.3965 13.7097Z" fill="#666666"/>
<path d="M14.3719 13.7128L12.9117 12.4728L11.214 11.655L10.3418 12.5668L11.8919 13.5166L12.6397 15.5237L14.3719 13.7128Z" fill="#666666"/>
<path d="M18.2837 20.2774C18.052 20.408 17.7958 20.473 17.5402 20.473C17.1103 20.473 16.6809 20.2891 16.3705 19.9253L12.6367 15.5491L13.3276 14.8269L17.5971 19.683C17.8027 19.9241 18.0377 20.133 18.2837 20.2774Z" fill="#3F597D"/>
<path d="M12.3123 13.1981C12.5253 12.9689 12.7258 12.7269 12.9118 12.4725L11.5434 11.3103L11.0327 11.8442L10.3418 12.5664L12.6372 15.549L13.3279 14.827L12.2999 13.491C12.2329 13.404 12.2378 13.2782 12.3123 13.1981Z" fill="#3F597D"/>
<path d="M6.75953 13.5577C9.92479 13.5577 12.4907 10.8753 12.4907 7.56635C12.4907 4.25739 9.92479 1.57495 6.75953 1.57495C3.59427 1.57495 1.02832 4.25739 1.02832 7.56635C1.02832 10.8753 3.59427 13.5577 6.75953 13.5577Z" fill="#FAF8F8"/>
<path d="M14.9874 14.4203L13.9365 15.519L13.2538 15.9923C12.9595 16.3 12.5934 16.3542 12.2991 16.0465L12.0919 15.7835C11.7976 15.4758 11.842 15.2247 12.1363 14.917L12.7178 14.0344L13.668 13.0411C13.9624 12.7334 14.4396 12.7334 14.7339 13.0411L14.9875 13.3062C15.2817 13.6138 15.2817 14.1127 14.9874 14.4203Z" fill="#FFBF54"/>
<path d="M13.9364 15.5193L13.2759 16.2099C13.2621 16.2243 13.2482 16.2376 13.2339 16.2493C12.9624 16.4916 12.5547 16.4777 12.2986 16.2099L11.9564 15.8521C11.6864 15.5704 11.6864 15.1127 11.9564 14.831L12.7179 14.0349L13.328 14.8277L13.9364 15.5193Z" fill="#FFA442"/>
<path d="M6.7598 0.473389C4.84178 0.473389 3.10713 1.30963 1.87194 2.65169C0.697842 3.92739 0.430176 5.65993 0.430176 7.56594C0.430176 11.4765 3.11293 14.353 6.85424 14.353C8.39681 14.353 9.62842 14.0837 10.7694 13.1736C11.0553 12.9454 11.4214 12.7279 11.6692 12.4561C12.8303 11.1828 13.5441 9.45994 13.5441 7.56612C13.5441 3.65509 10.5005 0.473389 6.7598 0.473389ZM6.7598 13.0545C3.86033 13.0545 1.50977 10.5973 1.50977 7.56612C1.50977 4.53503 3.86028 2.07781 6.7598 2.07781C9.65926 2.07781 12.0098 4.53503 12.0098 7.56612C12.0098 10.5973 9.65926 13.0545 6.7598 13.0545Z" fill="#666666"/>
<path d="M11.6926 12.4302C10.4549 13.8013 8.7012 14.658 6.75987 14.658C3.01863 14.658 -0.0249023 11.4764 -0.0249023 7.56575C-0.0249023 5.33078 0.968892 3.3335 2.51959 2.03296C1.37117 3.3035 0.665976 5.01684 0.665976 6.89908C0.665976 10.8096 3.70951 13.9913 7.45075 13.9913C9.05403 13.9914 10.5298 13.4064 11.6926 12.4302Z" fill="#3F597D"/>
<path d="M5.83402 10.3348C5.61145 10.3348 5.38889 10.2461 5.21914 10.0685L3.55859 8.20133C3.20912 7.83606 3.30501 6.94612 3.30501 6.94612C3.65135 6.61666 4.19068 6.64854 4.52183 6.99466L5.73465 8.26254C5.76862 8.29806 5.81314 8.31582 5.85761 8.31582C5.90213 8.31582 6.80079 8.27812 6.83477 8.2426L8.52216 5.98339C8.85325 5.63727 9.53949 5.074 9.88583 5.40345C10.2556 5.75521 10.2657 6.35412 9.91627 6.71939L6.47254 10.3195C6.44124 10.3522 6.40808 10.3819 6.37346 10.4087C6.22053 10.5268 6.01547 10.3348 5.83402 10.3348Z" fill="#B7E546"/>
<path d="M9.88967 5.40789C9.84735 5.4388 9.80735 5.47395 9.77025 5.51274L6.56311 8.83395C6.49528 8.90486 6.38513 8.90486 6.3173 8.83395L5.81641 8.31032C5.87322 8.32486 5.93583 8.3085 5.98047 8.26244L8.66874 5.45214C8.99977 5.10608 9.53893 5.07395 9.88561 5.40365C9.88677 5.40486 9.88851 5.40607 9.88967 5.40789Z" fill="#ABD641"/>
<path d="M6.37297 10.409C6.21992 10.5271 6.03846 10.5859 5.857 10.5859C5.63496 10.5859 5.41234 10.4975 5.24248 10.3199L3.27425 8.2623C2.92467 7.89745 2.9351 7.29806 3.3044 6.94654C3.32295 6.92897 3.34208 6.912 3.36237 6.89624C3.35542 7.13806 3.44006 7.38169 3.61688 7.56654L6.34399 10.3805C6.35326 10.3902 6.36312 10.3999 6.37297 10.409Z" fill="#ABD641"/>
</svg>
